<svg width="33" height="32" viewBox="0 0 33 32" fill="none" xmlns="http://www.w3.org/2000/svg">
<path d="M28.9437 6.46764C28.8593 6.34082 28.7748 6.25628 28.6903 6.12946L11.3817 23.461C11.5083 23.5456 11.5927 23.6301 11.7194 23.7147L6.52676 28.9141C6.65341 28.9987 6.78006 29.0832 6.86449 29.1678L29.1548 6.84809C29.1125 6.72127 29.0281 6.59445 28.9437 6.46764Z" fill="#555D6F" style="fill:#555D6F;fill:color(display-p3 0.3333 0.3647 0.4353);fill-opacity:1;"/>
<path d="M24.5532 29.6328L28.6482 25.5324C28.8171 25.4479 28.9859 25.3633 29.1548 25.2787C29.3237 25.0251 29.4925 24.7715 29.6614 24.5178C29.9569 24.0528 30.2102 23.6301 30.4213 23.1651L23.1601 30.3937C23.6244 30.1401 24.0888 29.8864 24.5532 29.6328Z" fill="#555D6F" style="fill:#555D6F;fill:color(display-p3 0.3333 0.3647 0.4353);fill-opacity:1;"/>
<path d="M27.3817 4.69221C27.3395 4.64994 27.2973 4.60766 27.2128 4.56539C27.1284 4.48085 27.0018 4.35403 26.9173 4.26949C26.8329 4.18496 26.7062 4.05814 26.5796 3.97359L15.5611 15.0066C15.6455 15.1334 15.73 15.218 15.8566 15.3448L9.48195 21.7279C9.56638 21.8124 9.69303 21.9392 9.77746 22.0238L4.58484 27.2233C4.62706 27.2655 4.66928 27.3078 4.71149 27.3923C4.75371 27.4346 4.79593 27.4769 4.88036 27.5192L27.5506 4.8613C27.4661 4.81903 27.4239 4.73448 27.3817 4.69221Z" fill="#555D6F" style="fill:#555D6F;fill:color(display-p3 0.3333 0.3647 0.4353);fill-opacity:1;"/>
<path d="M21.978 19.4875C22.1046 19.5297 22.2735 19.6143 22.4001 19.6565L31.2234 10.8217C31.1811 10.6526 31.0968 10.5258 31.0545 10.3567L21.978 19.4875Z" fill="#555D6F" style="fill:#555D6F;fill:color(display-p3 0.3333 0.3647 0.4353);fill-opacity:1;"/>
<path d="M21.5558 19.3184L30.9278 9.93395C30.8856 9.80713 30.8012 9.63805 30.759 9.51123L21.1336 19.1493C21.2603 19.1915 21.3869 19.2761 21.5558 19.3184Z" fill="#555D6F" style="fill:#555D6F;fill:color(display-p3 0.3333 0.3647 0.4353);fill-opacity:1;"/>
<path d="M19.1494 18.0925L29.6614 7.56671C29.5769 7.4399 29.4925 7.31308 29.4081 7.18626L18.7695 17.8388C18.8962 17.9234 19.0228 18.0079 19.1494 18.0925Z" fill="#555D6F" style="fill:#555D6F;fill:color(display-p3 0.3333 0.3647 0.4353);fill-opacity:1;"/>
<path d="M28.7325 20.5866L22.2734 27.0542C22.4845 27.0542 22.6956 27.0119 22.9067 27.0119L18.0096 31.9155C18.2629 31.8732 18.474 31.8732 18.7273 31.831L23.6244 26.9274C23.8777 26.8851 24.0887 26.8851 24.342 26.8428L30.8012 20.3752C31.0545 20.3329 31.3078 20.2906 31.5611 20.2061C31.6455 19.9524 31.6877 19.6566 31.7721 19.4029C31.8144 19.1493 31.8566 18.8956 31.8988 18.642C31.941 18.3884 31.9832 18.1771 31.9832 17.9234C32.0254 17.7121 32.0254 17.4584 32.0677 17.247C32.0677 17.0357 32.1099 16.8243 32.1099 16.6129L28.1415 20.5866C28.3104 20.6288 28.5215 20.6288 28.7325 20.5866Z" fill="#555D6F" style="fill:#555D6F;fill:color(display-p3 0.3333 0.3647 0.4353);fill-opacity:1;"/>
<path d="M17.4186 16.8243C17.5452 16.9089 17.6297 16.9934 17.7563 17.0779L28.6903 6.12946C28.6059 6.00264 28.5215 5.9181 28.4371 5.79129L17.4186 16.8243Z" fill="#555D6F" style="fill:#555D6F;fill:color(display-p3 0.3333 0.3647 0.4353);fill-opacity:1;"/>
<path d="M13.7879 12.5548L24.131 2.19813C24.0043 2.11359 23.8777 2.02904 23.751 1.98677L13.5769 12.1743C13.6613 12.3011 13.7035 12.428 13.7879 12.5548Z" fill="#555D6F" style="fill:#555D6F;fill:color(display-p3 0.3333 0.3647 0.4353);fill-opacity:1;"/>
<path d="M17.0809 16.5284L28.0993 5.49538C28.0149 5.36857 27.9305 5.28402 27.8038 5.15721L16.7853 16.2325C16.8698 16.317 16.9964 16.4438 17.0809 16.5284Z" fill="#555D6F" style="fill:#555D6F;fill:color(display-p3 0.3333 0.3647 0.4353);fill-opacity:1;"/>
<path d="M22.1469 1.18364L12.7748 10.568C12.817 10.6948 12.9014 10.864 12.9436 10.9908L6.56897 17.3738C6.61119 17.5007 6.69562 17.6275 6.78005 17.7966L22.9489 1.56409C22.8223 1.47955 22.6534 1.43727 22.5268 1.395C22.4001 1.31046 22.2735 1.22591 22.1469 1.18364Z" fill="#555D6F" style="fill:#555D6F;fill:color(display-p3 0.3333 0.3647 0.4353);fill-opacity:1;"/>
<path d="M15.3078 14.6684L26.284 3.67766C26.1574 3.59312 26.073 3.50858 25.9463 3.42403L15.0123 14.3725C15.0967 14.4571 15.1811 14.5839 15.3078 14.6684Z" fill="#555D6F" style="fill:#555D6F;fill:color(display-p3 0.3333 0.3647 0.4353);fill-opacity:1;"/>
<path d="M14.0413 12.9353C14.1257 13.0621 14.2101 13.1889 14.2946 13.3157L24.8909 2.66312C24.7643 2.57858 24.6376 2.49404 24.511 2.40949L14.0413 12.9353Z" fill="#555D6F" style="fill:#555D6F;fill:color(display-p3 0.3333 0.3647 0.4353);fill-opacity:1;"/>
<path d="M14.7167 25.5324L30.7168 9.51123C30.6745 9.38442 30.5901 9.21533 30.5479 9.08851C30.4635 8.9617 30.4212 8.83488 30.3368 8.66579C30.2524 8.53898 30.2102 8.41216 30.1257 8.28534C30.0413 8.15853 29.9991 8.03171 29.9147 7.90489L19.5294 18.3038C19.6561 18.3884 19.7827 18.4306 19.9094 18.5152L13.5347 24.9406C13.6613 25.0251 13.788 25.0673 13.9146 25.1519L8.76423 30.3091C8.89088 30.3936 9.01753 30.4359 9.18639 30.5204L14.2946 25.3633C14.4634 25.4055 14.5901 25.4901 14.7167 25.5324Z" fill="#555D6F" style="fill:#555D6F;fill:color(display-p3 0.3333 0.3647 0.4353);fill-opacity:1;"/>
<path d="M17.3764 26.5046L23.7933 20.0793C23.9622 20.1215 24.131 20.1638 24.2999 20.2061L31.7722 12.7239C31.73 12.5548 31.6878 12.3857 31.6456 12.2166C31.6034 12.0476 31.5611 11.8785 31.5189 11.7517C31.4767 11.5826 31.4345 11.4558 31.3923 11.2867C31.3501 11.1176 31.3078 10.9908 31.2656 10.8217L16.0677 26.0396C16.2366 26.0819 16.3632 26.1242 16.5321 26.2087L11.3395 31.3237C11.5083 31.3659 11.635 31.4082 11.8039 31.4505L16.912 26.3355C17.0809 26.4201 17.2076 26.4624 17.3764 26.5046Z" fill="#555D6F" style="fill:#555D6F;fill:color(display-p3 0.3333 0.3647 0.4353);fill-opacity:1;"/>
<path d="M27.5927 25.9551L30.379 23.1651C30.5479 22.7846 30.7167 22.4465 30.8856 22.0661L26.6639 26.2933C27.0017 26.1664 27.2972 26.0819 27.5927 25.9551Z" fill="#555D6F" style="fill:#555D6F;fill:color(display-p3 0.3333 0.3647 0.4353);fill-opacity:1;"/>
<path d="M10.3685 22.6579L27.8461 5.1572C27.7617 5.07266 27.635 4.94584 27.5506 4.8613L10.073 22.362C10.1574 22.4465 10.2841 22.531 10.3685 22.6579Z" fill="#555D6F" style="fill:#555D6F;fill:color(display-p3 0.3333 0.3647 0.4353);fill-opacity:1;"/>
<path d="M20.5004 27.0119L26.9173 20.5865C27.1284 20.5865 27.2972 20.5865 27.5083 20.6288L32.0677 16.0634C32.0677 15.852 32.0677 15.683 32.0677 15.4716C32.0677 15.2602 32.0677 15.0912 32.0254 14.8798C32.0254 14.7107 31.9833 14.4993 31.9833 14.3303C31.9833 14.1612 31.941 13.9498 31.8988 13.7807C31.8566 13.6116 31.8566 13.4425 31.8144 13.2734L24.7643 20.3329C24.9331 20.3752 25.1019 20.3752 25.2708 20.4174L18.8962 26.8428C19.065 26.8851 19.2339 26.8851 19.4028 26.9273L14.3368 31.9577C14.5057 31.9577 14.7167 32 14.8856 32L19.9516 26.9696C20.1204 27.0119 20.3315 27.0119 20.5004 27.0119Z" fill="#555D6F" style="fill:#555D6F;fill:color(display-p3 0.3333 0.3647 0.4353);fill-opacity:1;"/>
<path d="M12.3948 24.2642L29.4081 7.18626C29.3236 7.05945 29.2392 6.93263 29.1548 6.84809L12.0571 24.0105C12.1415 24.0951 12.2682 24.1797 12.3948 24.2642Z" fill="#555D6F" style="fill:#555D6F;fill:color(display-p3 0.3333 0.3647 0.4353);fill-opacity:1;"/>
<path d="M5.04918 9.80713L11.5083 3.3395C11.5083 3.55086 11.5083 3.76222 11.5083 3.97358L15.4344 0C15.2233 0 15.0122 0.0422721 14.8011 0.0422721C14.5901 0.0422721 14.3368 0.0845443 14.1257 0.126816C13.8724 0.169089 13.6613 0.169089 13.408 0.211361C13.1547 0.253633 12.9014 0.295905 12.6481 0.338177C12.3948 0.380449 12.0993 0.464993 11.846 0.549538C11.8038 0.803171 11.7194 1.0568 11.6772 1.31044L5.26027 7.77807C5.21805 8.0317 5.17583 8.24307 5.17583 8.4967L0.278708 13.4003C0.236492 13.6539 0.194276 13.8653 0.194276 14.1189L5.13362 9.17305C5.0914 9.38441 5.0914 9.59577 5.04918 9.80713Z" fill="#555D6F" style="fill:#555D6F;fill:color(display-p3 0.3333 0.3647 0.4353);fill-opacity:1;"/>
<path d="M5.30248 13.2312L11.7194 6.80581C11.7616 6.9749 11.7616 7.14399 11.8038 7.31308L18.854 0.253633C18.6851 0.211361 18.5162 0.211361 18.3474 0.169089C18.1785 0.126816 17.9674 0.126816 17.7985 0.0845443C17.6297 0.0845443 17.4186 0.0422721 17.2497 0.0422721C17.0386 0.0422721 16.8698 0 16.6587 0C16.4476 0 16.2788 0 16.0677 0L11.5083 4.56539C11.5083 4.77675 11.5083 4.94584 11.5505 5.1572L5.0914 11.5826C5.0914 11.7517 5.13362 11.963 5.13362 12.1321L0.109863 17.2048C0.109863 17.3738 0.15208 17.5852 0.15208 17.7543L5.21805 12.6816C5.21805 12.8507 5.26027 13.0621 5.30248 13.2312Z" fill="#555D6F" style="fill:#555D6F;fill:color(display-p3 0.3333 0.3647 0.4353);fill-opacity:1;"/>
<path d="M8.63758 20.7556L25.9463 3.42403C25.8197 3.33949 25.7353 3.25498 25.6086 3.17043C25.482 3.08589 25.3553 3.00134 25.2708 2.9168C25.1442 2.83225 25.0175 2.74771 24.9331 2.66317L7.87768 19.6988C7.96212 19.8256 8.04655 19.9525 8.13098 20.037L2.9806 25.2365C3.06503 25.3633 3.14947 25.4901 3.2339 25.5746L8.38428 20.4174C8.46871 20.5443 8.55315 20.6288 8.63758 20.7556Z" fill="#555D6F" style="fill:#555D6F;fill:color(display-p3 0.3333 0.3647 0.4353);fill-opacity:1;"/>
<path d="M5.8513 5.41083L10.0729 1.18364C9.69303 1.35273 9.31304 1.52182 8.97531 1.69091C8.51093 1.90227 8.04655 2.1559 7.62439 2.4518C7.37109 2.62089 7.11779 2.78998 6.86449 2.95907C6.78006 3.12816 6.69562 3.29725 6.61119 3.46634L2.51622 7.56671C2.2207 7.98943 1.96741 8.45443 1.71411 8.91942L6.14681 4.48085C6.06238 4.77675 5.93573 5.07266 5.8513 5.41083Z" fill="#555D6F" style="fill:#555D6F;fill:color(display-p3 0.3333 0.3647 0.4353);fill-opacity:1;"/>
<path d="M6.02016 16.1057L12.4371 9.68032C12.4793 9.80713 12.5637 9.97622 12.6059 10.103L21.6825 1.01455C21.5558 0.97228 21.387 0.887736 21.2181 0.845464C21.0492 0.803192 20.9226 0.760919 20.7537 0.718647C20.5848 0.676375 20.4582 0.634103 20.2893 0.591831C20.1204 0.549559 19.9516 0.507287 19.825 0.465014C19.6983 0.422742 19.5294 0.38047 19.3605 0.338198L11.8882 7.82034C11.9305 7.98943 11.9727 8.15856 12.0149 8.32765L5.598 14.7107C5.64021 14.8798 5.68243 15.0489 5.72465 15.1757L0.658697 20.2906C0.700914 20.4598 0.74313 20.5865 0.785347 20.7556L5.89351 15.6407C5.93573 15.8098 5.97794 15.9366 6.02016 16.1057Z" fill="#555D6F" style="fill:#555D6F;fill:color(display-p3 0.3333 0.3647 0.4353);fill-opacity:1;"/>
<path d="M7.16005 18.5997L23.751 1.98677C23.6244 1.90223 23.4978 1.85995 23.3712 1.77541C23.2445 1.69086 23.1178 1.64863 22.9489 1.56409L1.6297 22.9115C1.71413 23.0383 1.75634 23.1651 1.84078 23.3342L6.94896 18.177C7.0334 18.3461 7.11783 18.4729 7.16005 18.5997Z" fill="#555D6F" style="fill:#555D6F;fill:color(display-p3 0.3333 0.3647 0.4353);fill-opacity:1;"/>
</svg>
