<svg width="33" height="32" viewBox="0 0 33 32" fill="none" xmlns="http://www.w3.org/2000/svg">
<path d="M29.4437 6.46764C29.3593 6.34082 29.2748 6.25628 29.1903 6.12946L11.8817 23.461C12.0083 23.5456 12.0927 23.6301 12.2194 23.7147L7.02676 28.9141C7.15341 28.9987 7.28006 29.0832 7.36449 29.1678L29.6548 6.84809C29.6125 6.72127 29.5281 6.59445 29.4437 6.46764Z" fill="white" style="fill:white;fill-opacity:1;"/>
<path d="M25.0532 29.6328L29.1482 25.5324C29.3171 25.4479 29.4859 25.3633 29.6548 25.2787C29.8237 25.0251 29.9925 24.7715 30.1614 24.5178C30.4569 24.0528 30.7102 23.6301 30.9213 23.1651L23.6601 30.3937C24.1244 30.1401 24.5888 29.8864 25.0532 29.6328Z" fill="white" style="fill:white;fill-opacity:1;"/>
<path d="M27.8817 4.69221C27.8395 4.64994 27.7973 4.60766 27.7128 4.56539C27.6284 4.48085 27.5018 4.35403 27.4173 4.26949C27.3329 4.18496 27.2062 4.05814 27.0796 3.97359L16.0611 15.0066C16.1455 15.1334 16.23 15.218 16.3566 15.3448L9.98195 21.7279C10.0664 21.8124 10.193 21.9392 10.2775 22.0238L5.08484 27.2233C5.12706 27.2655 5.16928 27.3078 5.21149 27.3923C5.25371 27.4346 5.29593 27.4769 5.38036 27.5192L28.0506 4.8613C27.9661 4.81903 27.9239 4.73448 27.8817 4.69221Z" fill="white" style="fill:white;fill-opacity:1;"/>
<path d="M22.478 19.4875C22.6046 19.5297 22.7735 19.6143 22.9001 19.6565L31.7234 10.8217C31.6811 10.6526 31.5968 10.5258 31.5545 10.3567L22.478 19.4875Z" fill="white" style="fill:white;fill-opacity:1;"/>
<path d="M22.0558 19.3184L31.4278 9.93395C31.3856 9.80713 31.3012 9.63805 31.259 9.51123L21.6336 19.1493C21.7603 19.1915 21.8869 19.2761 22.0558 19.3184Z" fill="white" style="fill:white;fill-opacity:1;"/>
<path d="M19.6494 18.0925L30.1614 7.56671C30.0769 7.4399 29.9925 7.31308 29.9081 7.18626L19.2695 17.8388C19.3962 17.9234 19.5228 18.0079 19.6494 18.0925Z" fill="white" style="fill:white;fill-opacity:1;"/>
<path d="M29.2325 20.5866L22.7734 27.0542C22.9845 27.0542 23.1956 27.0119 23.4067 27.0119L18.5096 31.9155C18.7629 31.8732 18.974 31.8732 19.2273 31.831L24.1244 26.9274C24.3777 26.8851 24.5887 26.8851 24.842 26.8428L31.3012 20.3752C31.5545 20.3329 31.8078 20.2906 32.0611 20.2061C32.1455 19.9524 32.1877 19.6566 32.2721 19.4029C32.3144 19.1493 32.3566 18.8956 32.3988 18.642C32.441 18.3884 32.4832 18.1771 32.4832 17.9234C32.5254 17.7121 32.5254 17.4584 32.5677 17.247C32.5677 17.0357 32.6099 16.8243 32.6099 16.6129L28.6415 20.5866C28.8104 20.6288 29.0215 20.6288 29.2325 20.5866Z" fill="white" style="fill:white;fill-opacity:1;"/>
<path d="M17.9186 16.8243C18.0452 16.9089 18.1297 16.9934 18.2563 17.0779L29.1903 6.12946C29.1059 6.00264 29.0215 5.9181 28.9371 5.79129L17.9186 16.8243Z" fill="white" style="fill:white;fill-opacity:1;"/>
<path d="M14.2879 12.5548L24.631 2.19813C24.5043 2.11359 24.3777 2.02904 24.251 1.98677L14.0769 12.1743C14.1613 12.3011 14.2035 12.428 14.2879 12.5548Z" fill="white" style="fill:white;fill-opacity:1;"/>
<path d="M17.5809 16.5284L28.5993 5.49538C28.5149 5.36857 28.4305 5.28402 28.3038 5.15721L17.2853 16.2325C17.3698 16.317 17.4964 16.4438 17.5809 16.5284Z" fill="white" style="fill:white;fill-opacity:1;"/>
<path d="M22.6469 1.18364L13.2748 10.568C13.317 10.6948 13.4014 10.864 13.4436 10.9908L7.06897 17.3738C7.11119 17.5007 7.19562 17.6275 7.28005 17.7966L23.4489 1.56409C23.3223 1.47955 23.1534 1.43727 23.0268 1.395C22.9001 1.31046 22.7735 1.22591 22.6469 1.18364Z" fill="white" style="fill:white;fill-opacity:1;"/>
<path d="M15.8078 14.6684L26.784 3.67766C26.6574 3.59312 26.573 3.50858 26.4463 3.42403L15.5123 14.3725C15.5967 14.4571 15.6811 14.5839 15.8078 14.6684Z" fill="white" style="fill:white;fill-opacity:1;"/>
<path d="M14.5413 12.9353C14.6257 13.0621 14.7101 13.1889 14.7946 13.3157L25.3909 2.66312C25.2643 2.57858 25.1376 2.49404 25.011 2.40949L14.5413 12.9353Z" fill="white" style="fill:white;fill-opacity:1;"/>
<path d="M15.2167 25.5324L31.2168 9.51123C31.1745 9.38442 31.0901 9.21533 31.0479 9.08851C30.9635 8.9617 30.9212 8.83488 30.8368 8.66579C30.7524 8.53898 30.7102 8.41216 30.6257 8.28534C30.5413 8.15853 30.4991 8.03171 30.4147 7.90489L20.0294 18.3038C20.1561 18.3884 20.2827 18.4306 20.4094 18.5152L14.0347 24.9406C14.1613 25.0251 14.288 25.0673 14.4146 25.1519L9.26423 30.3091C9.39088 30.3936 9.51753 30.4359 9.68639 30.5204L14.7946 25.3633C14.9634 25.4055 15.0901 25.4901 15.2167 25.5324Z" fill="white" style="fill:white;fill-opacity:1;"/>
<path d="M17.8764 26.5046L24.2933 20.0793C24.4622 20.1215 24.631 20.1638 24.7999 20.2061L32.2722 12.7239C32.23 12.5548 32.1878 12.3857 32.1456 12.2166C32.1034 12.0476 32.0611 11.8785 32.0189 11.7517C31.9767 11.5826 31.9345 11.4558 31.8923 11.2867C31.8501 11.1176 31.8078 10.9908 31.7656 10.8217L16.5677 26.0396C16.7366 26.0819 16.8632 26.1242 17.0321 26.2087L11.8395 31.3237C12.0083 31.3659 12.135 31.4082 12.3039 31.4505L17.412 26.3355C17.5809 26.4201 17.7076 26.4624 17.8764 26.5046Z" fill="white" style="fill:white;fill-opacity:1;"/>
<path d="M28.0927 25.9551L30.879 23.1651C31.0479 22.7846 31.2167 22.4465 31.3856 22.0661L27.1639 26.2933C27.5017 26.1664 27.7972 26.0819 28.0927 25.9551Z" fill="white" style="fill:white;fill-opacity:1;"/>
<path d="M10.8685 22.6579L28.3461 5.1572C28.2617 5.07266 28.135 4.94584 28.0506 4.8613L10.573 22.362C10.6574 22.4465 10.7841 22.531 10.8685 22.6579Z" fill="white" style="fill:white;fill-opacity:1;"/>
<path d="M21.0004 27.0119L27.4173 20.5865C27.6284 20.5865 27.7972 20.5865 28.0083 20.6288L32.5677 16.0634C32.5677 15.852 32.5677 15.683 32.5677 15.4716C32.5677 15.2602 32.5677 15.0912 32.5254 14.8798C32.5254 14.7107 32.4833 14.4993 32.4833 14.3303C32.4833 14.1612 32.441 13.9498 32.3988 13.7807C32.3566 13.6116 32.3566 13.4425 32.3144 13.2734L25.2643 20.3329C25.4331 20.3752 25.6019 20.3752 25.7708 20.4174L19.3962 26.8428C19.565 26.8851 19.7339 26.8851 19.9028 26.9273L14.8368 31.9577C15.0057 31.9577 15.2167 32 15.3856 32L20.4516 26.9696C20.6204 27.0119 20.8315 27.0119 21.0004 27.0119Z" fill="white" style="fill:white;fill-opacity:1;"/>
<path d="M12.8948 24.2642L29.9081 7.18626C29.8236 7.05945 29.7392 6.93263 29.6548 6.84809L12.5571 24.0105C12.6415 24.0951 12.7682 24.1797 12.8948 24.2642Z" fill="white" style="fill:white;fill-opacity:1;"/>
<path d="M5.54918 9.80713L12.0083 3.3395C12.0083 3.55086 12.0083 3.76222 12.0083 3.97358L15.9344 0C15.7233 0 15.5122 0.0422721 15.3011 0.0422721C15.0901 0.0422721 14.8368 0.0845443 14.6257 0.126816C14.3724 0.169089 14.1613 0.169089 13.908 0.211361C13.6547 0.253633 13.4014 0.295905 13.1481 0.338177C12.8948 0.380449 12.5993 0.464993 12.346 0.549538C12.3038 0.803171 12.2194 1.0568 12.1772 1.31044L5.76027 7.77807C5.71805 8.0317 5.67583 8.24307 5.67583 8.4967L0.778708 13.4003C0.736492 13.6539 0.694276 13.8653 0.694276 14.1189L5.63362 9.17305C5.5914 9.38441 5.5914 9.59577 5.54918 9.80713Z" fill="white" style="fill:white;fill-opacity:1;"/>
<path d="M5.80248 13.2312L12.2194 6.80581C12.2616 6.9749 12.2616 7.14399 12.3038 7.31308L19.354 0.253633C19.1851 0.211361 19.0162 0.211361 18.8474 0.169089C18.6785 0.126816 18.4674 0.126816 18.2985 0.0845443C18.1297 0.0845443 17.9186 0.0422721 17.7497 0.0422721C17.5386 0.0422721 17.3698 0 17.1587 0C16.9476 0 16.7788 0 16.5677 0L12.0083 4.56539C12.0083 4.77675 12.0083 4.94584 12.0505 5.1572L5.5914 11.5826C5.5914 11.7517 5.63362 11.963 5.63362 12.1321L0.609863 17.2048C0.609863 17.3738 0.65208 17.5852 0.65208 17.7543L5.71805 12.6816C5.71805 12.8507 5.76027 13.0621 5.80248 13.2312Z" fill="white" style="fill:white;fill-opacity:1;"/>
<path d="M9.13758 20.7556L26.4463 3.42403C26.3197 3.33949 26.2353 3.25498 26.1086 3.17043C25.982 3.08589 25.8553 3.00134 25.7708 2.9168C25.6442 2.83225 25.5175 2.74771 25.4331 2.66317L8.37768 19.6988C8.46212 19.8256 8.54655 19.9525 8.63098 20.037L3.4806 25.2365C3.56503 25.3633 3.64947 25.4901 3.7339 25.5746L8.88428 20.4174C8.96871 20.5443 9.05315 20.6288 9.13758 20.7556Z" fill="white" style="fill:white;fill-opacity:1;"/>
<path d="M6.3513 5.41083L10.5729 1.18364C10.193 1.35273 9.81304 1.52182 9.47531 1.69091C9.01093 1.90227 8.54655 2.1559 8.12439 2.4518C7.87109 2.62089 7.61779 2.78998 7.36449 2.95907C7.28006 3.12816 7.19562 3.29725 7.11119 3.46634L3.01622 7.56671C2.7207 7.98943 2.46741 8.45443 2.21411 8.91942L6.64681 4.48085C6.56238 4.77675 6.43573 5.07266 6.3513 5.41083Z" fill="white" style="fill:white;fill-opacity:1;"/>
<path d="M6.52016 16.1057L12.9371 9.68032C12.9793 9.80713 13.0637 9.97622 13.1059 10.103L22.1825 1.01455C22.0558 0.97228 21.887 0.887736 21.7181 0.845464C21.5492 0.803192 21.4226 0.760919 21.2537 0.718647C21.0848 0.676375 20.9582 0.634103 20.7893 0.591831C20.6204 0.549559 20.4516 0.507287 20.325 0.465014C20.1983 0.422742 20.0294 0.38047 19.8605 0.338198L12.3882 7.82034C12.4305 7.98943 12.4727 8.15856 12.5149 8.32765L6.098 14.7107C6.14021 14.8798 6.18243 15.0489 6.22465 15.1757L1.1587 20.2906C1.20091 20.4598 1.24313 20.5865 1.28535 20.7556L6.39351 15.6407C6.43573 15.8098 6.47794 15.9366 6.52016 16.1057Z" fill="white" style="fill:white;fill-opacity:1;"/>
<path d="M7.66005 18.5997L24.251 1.98677C24.1244 1.90223 23.9978 1.85995 23.8712 1.77541C23.7445 1.69086 23.6178 1.64863 23.4489 1.56409L2.1297 22.9115C2.21413 23.0383 2.25634 23.1651 2.34078 23.3342L7.44896 18.177C7.5334 18.3461 7.61783 18.4729 7.66005 18.5997Z" fill="white" style="fill:white;fill-opacity:1;"/>
</svg>
