<svg width="61" height="60" viewBox="0 0 61 60" fill="none" xmlns="http://www.w3.org/2000/svg">
<rect x="0.609863" width="60" height="60" rx="12" fill="#111111" fill-opacity="0.04" style="fill:#111111;fill:color(display-p3 0.0667 0.0667 0.0667);fill-opacity:0.04;"/>
<path d="M24.1099 41C26.0429 41 27.6099 39.433 27.6099 37.5C27.6099 35.567 26.0429 34 24.1099 34C22.1769 34 20.6099 35.567 20.6099 37.5C20.6099 39.433 22.1769 41 24.1099 41Z" stroke="#343330" style="stroke:#343330;stroke:color(display-p3 0.2039 0.2000 0.1882);stroke-opacity:1;" stroke-width="2" stroke-linecap="round" stroke-linejoin="round"/>
<path d="M20.6099 23L25.6099 28" stroke="#343330" style="stroke:#343330;stroke:color(display-p3 0.2039 0.2000 0.1882);stroke-opacity:1;" stroke-width="2" stroke-linecap="round" stroke-linejoin="round"/>
<path d="M25.6099 23L20.6099 28" stroke="#343330" style="stroke:#343330;stroke:color(display-p3 0.2039 0.2000 0.1882);stroke-opacity:1;" stroke-width="2" stroke-linecap="round" stroke-linejoin="round"/>
<path d="M37.6099 35L42.6099 40" stroke="#343330" style="stroke:#343330;stroke:color(display-p3 0.2039 0.2000 0.1882);stroke-opacity:1;" stroke-width="2" stroke-linecap="round" stroke-linejoin="round"/>
<path d="M42.6099 35L37.6099 40" stroke="#343330" style="stroke:#343330;stroke:color(display-p3 0.2039 0.2000 0.1882);stroke-opacity:1;" stroke-width="2" stroke-linecap="round" stroke-linejoin="round"/>
<path d="M32.6099 24V19H37.6099" stroke="#343330" style="stroke:#343330;stroke:color(display-p3 0.2039 0.2000 0.1882);stroke-opacity:1;" stroke-width="2" stroke-linecap="round" stroke-linejoin="round"/>
<path d="M32.6099 19L34.6099 21C39.6099 26 35.6099 32 31.6099 33" stroke="#343330" style="stroke:#343330;stroke:color(display-p3 0.2039 0.2000 0.1882);stroke-opacity:1;" stroke-width="2" stroke-linecap="round" stroke-linejoin="round"/>
</svg>
