<svg width="61" height="60" viewBox="0 0 61 60" fill="none" xmlns="http://www.w3.org/2000/svg">
<rect x="0.609863" width="60" height="60" rx="12" fill="#111111" fill-opacity="0.04" style="fill:#111111;fill:color(display-p3 0.0667 0.0667 0.0667);fill-opacity:0.04;"/>
<path d="M39.6099 33L34.6099 38L26.6099 36L19.6099 31" stroke="#343330" style="stroke:#343330;stroke:color(display-p3 0.2039 0.2000 0.1882);stroke-opacity:1;" stroke-width="2" stroke-linecap="round" stroke-linejoin="round"/>
<path d="M23.6948 22.8287L30.6098 21L37.5248 22.8287" stroke="#343330" style="stroke:#343330;stroke:color(display-p3 0.2039 0.2000 0.1882);stroke-opacity:1;" stroke-width="2" stroke-linecap="round" stroke-linejoin="round"/>
<path d="M18.9062 21.5525L15.7162 27.935C15.5977 28.172 15.5781 28.4465 15.6617 28.698C15.7454 28.9495 15.9255 29.1575 16.1625 29.2762L19.61 31L23.695 22.8287L20.2487 21.1062C20.1313 21.0473 20.0034 21.0122 19.8723 21.0027C19.7413 20.9933 19.6097 21.0097 19.485 21.0512C19.3603 21.0926 19.245 21.1582 19.1457 21.2442C19.0464 21.3303 18.965 21.435 18.9062 21.5525Z" stroke="#343330" style="stroke:#343330;stroke:color(display-p3 0.2039 0.2000 0.1882);stroke-opacity:1;" stroke-width="2" stroke-linecap="round" stroke-linejoin="round"/>
<path d="M41.6099 31L45.0574 29.2762C45.2943 29.1575 45.4744 28.9495 45.5581 28.698C45.6418 28.4465 45.6222 28.172 45.5037 27.935L42.3137 21.5525C42.2548 21.435 42.1735 21.3303 42.0741 21.2442C41.9748 21.1582 41.8595 21.0926 41.7349 21.0512C41.6102 21.0097 41.4786 20.9933 41.3475 21.0027C41.2165 21.0122 41.0886 21.0473 40.9712 21.1062L37.5249 22.8287L41.6099 31Z" stroke="#343330" style="stroke:#343330;stroke:color(display-p3 0.2039 0.2000 0.1882);stroke-opacity:1;" stroke-width="2" stroke-linecap="round" stroke-linejoin="round"/>
<path d="M37.6099 23H32.6099L26.9024 28.5363C26.7963 28.6423 26.7155 28.7709 26.6658 28.9124C26.6161 29.054 26.5989 29.2049 26.6155 29.354C26.6321 29.5031 26.682 29.6465 26.7615 29.7737C26.841 29.9009 26.9482 30.0086 27.0749 30.0888C29.2637 31.4875 32.2349 31.3912 34.6099 29L39.6099 33L41.6099 31" stroke="#343330" style="stroke:#343330;stroke:color(display-p3 0.2039 0.2000 0.1882);stroke-opacity:1;" stroke-width="2" stroke-linecap="round" stroke-linejoin="round"/>
<path d="M30.1174 41L24.9024 39.6963L21.6099 37.3438" stroke="#343330" style="stroke:#343330;stroke:color(display-p3 0.2039 0.2000 0.1882);stroke-opacity:1;" stroke-width="2" stroke-linecap="round" stroke-linejoin="round"/>
</svg>
