<svg width="61" height="60" viewBox="0 0 61 60" fill="none" xmlns="http://www.w3.org/2000/svg">
<rect x="0.609863" width="60" height="60" rx="12" fill="#111111" fill-opacity="0.04" style="fill:#111111;fill:color(display-p3 0.0667 0.0667 0.0667);fill-opacity:0.04;"/>
<path d="M27.6099 31.7325V23.6488L33.1724 20.4375C34.3005 19.7859 35.61 19.5192 36.9031 19.6776C38.1961 19.836 39.4025 20.411 40.34 21.3157C41.2774 22.2203 41.8949 23.4055 42.0992 24.6922C42.3035 25.9788 42.0835 27.297 41.4724 28.4475" stroke="#343330" style="stroke:#343330;stroke:color(display-p3 0.2039 0.2000 0.1882);stroke-opacity:1;" stroke-width="2" stroke-linecap="round" stroke-linejoin="round"/>
<path d="M30.6099 33.4637L23.6099 29.4225V23C23.6097 21.6974 24.0334 20.43 24.817 19.3895C25.6007 18.3489 26.7017 17.5917 27.9537 17.2321C29.2058 16.8726 30.5408 16.9302 31.7572 17.3964C32.9735 17.8626 34.0051 18.712 34.6961 19.8162" stroke="#343330" style="stroke:#343330;stroke:color(display-p3 0.2039 0.2000 0.1882);stroke-opacity:1;" stroke-width="2" stroke-linecap="round" stroke-linejoin="round"/>
<path d="M33.6098 31.7325L26.6098 35.7738L21.0473 32.5625C19.9215 31.9103 19.0383 30.9098 18.5307 29.7118C18.0231 28.5139 17.9186 27.1834 18.233 25.9209C18.5474 24.6584 19.2637 23.5323 20.2739 22.7124C21.2841 21.8924 22.5334 21.4231 23.8335 21.375" stroke="#343330" style="stroke:#343330;stroke:color(display-p3 0.2039 0.2000 0.1882);stroke-opacity:1;" stroke-width="2" stroke-linecap="round" stroke-linejoin="round"/>
<path d="M33.6099 28.2675V36.3512L28.0474 39.5625C26.9194 40.2141 25.6098 40.4808 24.3168 40.3224C23.0237 40.164 21.8173 39.589 20.8798 38.6843C19.9424 37.7796 19.3249 36.5944 19.1206 35.3078C18.9163 34.0212 19.1364 32.703 19.7474 31.5525" stroke="#343330" style="stroke:#343330;stroke:color(display-p3 0.2039 0.2000 0.1882);stroke-opacity:1;" stroke-width="2" stroke-linecap="round" stroke-linejoin="round"/>
<path d="M30.6099 26.5363L37.6099 30.5775V37C37.6101 38.3026 37.1864 39.57 36.4028 40.6105C35.6191 41.6511 34.5181 42.4083 33.2661 42.7679C32.014 43.1274 30.679 43.0698 29.4626 42.6036C28.2463 42.1374 27.2147 41.288 26.5237 40.1838" stroke="#343330" style="stroke:#343330;stroke:color(display-p3 0.2039 0.2000 0.1882);stroke-opacity:1;" stroke-width="2" stroke-linecap="round" stroke-linejoin="round"/>
<path d="M27.6099 28.2674L34.6099 24.2262L40.1724 27.4374C41.301 28.0884 42.1871 29.0891 42.6967 30.2882C43.2063 31.4874 43.3117 32.8198 42.997 34.0842C42.6823 35.3485 41.9646 36.4761 40.9523 37.2964C39.94 38.1167 38.6882 38.5853 37.3861 38.6312" stroke="#343330" style="stroke:#343330;stroke:color(display-p3 0.2039 0.2000 0.1882);stroke-opacity:1;" stroke-width="2" stroke-linecap="round" stroke-linejoin="round"/>
</svg>
