<svg width="127" height="24" viewBox="0 0 127 24" fill="none" xmlns="http://www.w3.org/2000/svg">
<path d="M22.3198 4.85073C22.2562 4.75562 22.1926 4.69221 22.129 4.59709L9.09675 17.5958C9.19211 17.6592 9.25568 17.7226 9.35104 17.786L5.44135 21.6856C5.53671 21.749 5.63207 21.8124 5.69564 21.8758L22.4787 5.13606C22.4469 5.04095 22.3833 4.94584 22.3198 4.85073Z" fill="#111111" style="fill:#111111;fill:color(display-p3 0.0667 0.0667 0.0667);fill-opacity:1;"/>
<path d="M19.014 22.2246L22.0973 19.1493C22.2244 19.0859 22.3516 19.0225 22.4787 18.9591C22.6059 18.7688 22.733 18.5786 22.8602 18.3884C23.0827 18.0396 23.2734 17.7226 23.4323 17.3738L17.9651 22.7953C18.3147 22.6051 18.6644 22.4148 19.014 22.2246Z" fill="#111111" style="fill:#111111;fill:color(display-p3 0.0667 0.0667 0.0667);fill-opacity:1;"/>
<path d="M21.1437 3.51916C21.1119 3.48745 21.0801 3.45575 21.0166 3.42404C20.953 3.36064 20.8576 3.26552 20.7941 3.20212C20.7305 3.13872 20.6351 3.0436 20.5398 2.98019L12.2436 11.255C12.3072 11.3501 12.3707 11.4135 12.4661 11.5086L7.66641 16.2959C7.72998 16.3593 7.82534 16.4544 7.88891 16.5178L3.97922 20.4174C4.01101 20.4491 4.04279 20.4809 4.07458 20.5443C4.10636 20.576 4.13815 20.6077 4.20172 20.6394L21.2708 3.64597C21.2073 3.61427 21.1755 3.55086 21.1437 3.51916Z" fill="#111111" style="fill:#111111;fill:color(display-p3 0.0667 0.0667 0.0667);fill-opacity:1;"/>
<path d="M17.0751 14.6156C17.1704 14.6473 17.2976 14.7107 17.3929 14.7424L24.0362 8.11625C24.0044 7.98943 23.9409 7.89432 23.9091 7.7675L17.0751 14.6156Z" fill="#111111" style="fill:#111111;fill:color(display-p3 0.0667 0.0667 0.0667);fill-opacity:1;"/>
<path d="M16.7572 14.4888L23.8137 7.45046C23.7819 7.35535 23.7183 7.22854 23.6866 7.13342L16.4393 14.362C16.5347 14.3937 16.63 14.4571 16.7572 14.4888Z" fill="#111111" style="fill:#111111;fill:color(display-p3 0.0667 0.0667 0.0667);fill-opacity:1;"/>
<path d="M14.9454 13.5694L22.8601 5.67503C22.7965 5.57992 22.733 5.48481 22.6694 5.3897L14.6593 13.3791C14.7547 13.4425 14.85 13.5059 14.9454 13.5694Z" fill="#111111" style="fill:#111111;fill:color(display-p3 0.0667 0.0667 0.0667);fill-opacity:1;"/>
<path d="M22.1608 15.4399L17.2975 20.2906C17.4565 20.2906 17.6154 20.2589 17.7743 20.2589L14.0871 23.9366C14.2778 23.9049 14.4368 23.9049 14.6275 23.8732L18.3147 20.1955C18.5054 20.1638 18.6643 20.1638 18.855 20.1321L23.7183 15.2814C23.909 15.2497 24.0998 15.218 24.2905 15.1546C24.354 14.9643 24.3858 14.7424 24.4494 14.5522C24.4812 14.362 24.513 14.1717 24.5448 13.9815C24.5765 13.7913 24.6083 13.6328 24.6083 13.4426C24.6401 13.284 24.6401 13.0938 24.6719 12.9353C24.6719 12.7767 24.7037 12.6182 24.7037 12.4597L21.7158 15.4399C21.8429 15.4716 22.0019 15.4716 22.1608 15.4399Z" fill="#111111" style="fill:#111111;fill:color(display-p3 0.0667 0.0667 0.0667);fill-opacity:1;"/>
<path d="M13.6422 12.6182C13.7375 12.6816 13.8011 12.7451 13.8964 12.8085L22.129 4.59709C22.0654 4.50198 22.0019 4.43858 21.9383 4.34347L13.6422 12.6182Z" fill="#111111" style="fill:#111111;fill:color(display-p3 0.0667 0.0667 0.0667);fill-opacity:1;"/>
<path d="M10.9085 9.41612L18.6961 1.6486C18.6008 1.58519 18.5054 1.52178 18.41 1.49008L10.7496 9.13075C10.8132 9.22586 10.845 9.32101 10.9085 9.41612Z" fill="#111111" style="fill:#111111;fill:color(display-p3 0.0667 0.0667 0.0667);fill-opacity:1;"/>
<path d="M13.3879 12.3963L21.684 4.12154C21.6205 4.02642 21.5569 3.96302 21.4615 3.8679L13.1654 12.1744C13.2289 12.2378 13.3243 12.3329 13.3879 12.3963Z" fill="#111111" style="fill:#111111;fill:color(display-p3 0.0667 0.0667 0.0667);fill-opacity:1;"/>
<path d="M17.2022 0.88773L10.1457 7.92602C10.1775 8.02114 10.241 8.14799 10.2728 8.24307L5.47313 13.0304C5.50492 13.1255 5.56849 13.2206 5.63206 13.3474L17.8061 1.17307C17.7108 1.10966 17.5836 1.07795 17.4883 1.04625C17.3929 0.982843 17.2976 0.919434 17.2022 0.88773Z" fill="#111111" style="fill:#111111;fill:color(display-p3 0.0667 0.0667 0.0667);fill-opacity:1;"/>
<path d="M12.0528 11.0013L20.3172 2.75825C20.2219 2.69484 20.1583 2.63143 20.063 2.56802L11.8303 10.7794C11.8939 10.8428 11.9575 10.9379 12.0528 11.0013Z" fill="#111111" style="fill:#111111;fill:color(display-p3 0.0667 0.0667 0.0667);fill-opacity:1;"/>
<path d="M11.0993 9.70146C11.1628 9.79657 11.2264 9.89168 11.29 9.98679L19.2683 1.99734C19.1729 1.93393 19.0776 1.87053 18.9822 1.80712L11.0993 9.70146Z" fill="#111111" style="fill:#111111;fill:color(display-p3 0.0667 0.0667 0.0667);fill-opacity:1;"/>
<path d="M11.6078 19.1493L23.6548 7.13343C23.623 7.03831 23.5594 6.9115 23.5276 6.81639C23.4641 6.72127 23.4323 6.62616 23.3687 6.49934C23.3051 6.40423 23.2733 6.30912 23.2098 6.21401C23.1462 6.1189 23.1144 6.02378 23.0508 5.92867L15.2315 13.7278C15.3268 13.7913 15.4222 13.823 15.5175 13.8864L10.7178 18.7054C10.8132 18.7688 10.9086 18.8005 11.0039 18.8639L7.12601 22.7318C7.22137 22.7952 7.31673 22.8269 7.44387 22.8903L11.29 19.0225C11.4171 19.0541 11.5125 19.1176 11.6078 19.1493Z" fill="#111111" style="fill:#111111;fill:color(display-p3 0.0667 0.0667 0.0667);fill-opacity:1;"/>
<path d="M13.6104 19.8785L18.4419 15.0595C18.569 15.0912 18.6962 15.1229 18.8233 15.1546L24.4495 9.54294C24.4177 9.41612 24.3859 9.2893 24.3541 9.16249C24.3223 9.03567 24.2905 8.90885 24.2587 8.81374C24.227 8.68692 24.1952 8.59181 24.1634 8.465C24.1316 8.33818 24.0998 8.24307 24.068 8.11625L12.625 19.5297C12.7522 19.5614 12.8475 19.5931 12.9747 19.6565L9.06499 23.4927C9.19214 23.5244 9.2875 23.5562 9.41464 23.5879L13.2608 19.7517C13.3879 19.8151 13.4833 19.8468 13.6104 19.8785Z" fill="#111111" style="fill:#111111;fill:color(display-p3 0.0667 0.0667 0.0667);fill-opacity:1;"/>
<path d="M21.3026 19.4663L23.4005 17.3738C23.5276 17.0885 23.6547 16.8349 23.7819 16.5495L20.6033 19.7199C20.8576 19.6248 21.0801 19.5614 21.3026 19.4663Z" fill="#111111" style="fill:#111111;fill:color(display-p3 0.0667 0.0667 0.0667);fill-opacity:1;"/>
<path d="M8.33391 16.9934L21.4934 3.8679C21.4298 3.80449 21.3344 3.70938 21.2708 3.64597L8.11141 16.7715C8.17498 16.8349 8.27034 16.8983 8.33391 16.9934Z" fill="#111111" style="fill:#111111;fill:color(display-p3 0.0667 0.0667 0.0667);fill-opacity:1;"/>
<path d="M15.9625 20.2589L20.794 15.4399C20.953 15.4399 21.0801 15.4399 21.239 15.4716L24.6719 12.0476C24.6719 11.889 24.6719 11.7622 24.6719 11.6037C24.6719 11.4452 24.6719 11.3184 24.6401 11.1598C24.6401 11.033 24.6084 10.8745 24.6084 10.7477C24.6084 10.6209 24.5766 10.4624 24.5448 10.3355C24.513 10.2087 24.513 10.0819 24.4812 9.95509L19.1729 15.2497C19.3001 15.2814 19.4272 15.2814 19.5543 15.3131L14.7547 20.1321C14.8818 20.1638 15.009 20.1638 15.1361 20.1955L11.3218 23.9683C11.4489 23.9683 11.6079 24 11.735 24L15.5493 20.2272C15.6765 20.2589 15.8354 20.2589 15.9625 20.2589Z" fill="#111111" style="fill:#111111;fill:color(display-p3 0.0667 0.0667 0.0667);fill-opacity:1;"/>
<path d="M9.85961 18.1982L22.6694 5.3897C22.6058 5.29458 22.5423 5.19947 22.4787 5.13606L9.60532 18.0079C9.66889 18.0713 9.76425 18.1348 9.85961 18.1982Z" fill="#111111" style="fill:#111111;fill:color(display-p3 0.0667 0.0667 0.0667);fill-opacity:1;"/>
<path d="M4.32884 7.35535L9.19211 2.50462C9.19211 2.66314 9.19211 2.82166 9.19211 2.98019L12.1482 0C11.9892 0 11.8303 0.0317041 11.6714 0.0317041C11.5125 0.0317041 11.3218 0.0634082 11.1628 0.0951123C10.9721 0.126816 10.8132 0.126816 10.6225 0.158521C10.4318 0.190225 10.241 0.221929 10.0503 0.253633C9.85961 0.285337 9.63711 0.348745 9.44636 0.412153C9.41458 0.602378 9.35104 0.792602 9.31925 0.982827L4.48777 5.83355C4.45598 6.02378 4.42419 6.1823 4.42419 6.37252L0.736992 10.0502C0.705206 10.2404 0.67342 10.3989 0.67342 10.5892L4.39241 6.87979C4.36062 7.03831 4.36062 7.19683 4.32884 7.35535Z" fill="#111111" style="fill:#111111;fill:color(display-p3 0.0667 0.0667 0.0667);fill-opacity:1;"/>
<path d="M4.51955 9.92338L9.35104 5.10436C9.38282 5.23118 9.38282 5.35799 9.41461 5.48481L14.7229 0.190225C14.5957 0.158521 14.4686 0.158521 14.3415 0.126816C14.2143 0.0951123 14.0554 0.0951123 13.9282 0.0634082C13.8011 0.0634082 13.6422 0.0317041 13.515 0.0317041C13.3561 0.0317041 13.2289 0 13.07 0C12.9111 0 12.7839 0 12.625 0L9.19211 3.42404C9.19211 3.58256 9.19211 3.70938 9.22389 3.8679L4.36062 8.68692C4.36062 8.81374 4.39241 8.97226 4.39241 9.09908L0.609863 12.9036C0.609863 13.0304 0.641649 13.1889 0.641649 13.3157L4.45598 9.51123C4.45598 9.63805 4.48777 9.79657 4.51955 9.92338Z" fill="#111111" style="fill:#111111;fill:color(display-p3 0.0667 0.0667 0.0667);fill-opacity:1;"/>
<path d="M7.03065 15.5667L20.063 2.56802C19.9676 2.50462 19.904 2.44123 19.8087 2.37782C19.7133 2.31441 19.6179 2.25101 19.5544 2.1876C19.459 2.12419 19.3637 2.06078 19.3001 1.99737L6.4585 14.7741C6.52207 14.8692 6.58565 14.9644 6.64922 15.0278L2.77133 18.9274C2.8349 19.0225 2.89848 19.1176 2.96205 19.181L6.83994 15.3131C6.90351 15.4082 6.96708 15.4716 7.03065 15.5667Z" fill="#111111" style="fill:#111111;fill:color(display-p3 0.0667 0.0667 0.0667);fill-opacity:1;"/>
<path d="M4.93277 4.05812L8.11138 0.88773C7.82534 1.01455 7.53923 1.14136 7.28494 1.26818C6.93529 1.4267 6.58565 1.61692 6.26779 1.83885C6.07707 1.96567 5.88635 2.09249 5.69564 2.2193C5.63206 2.34612 5.56849 2.47294 5.50492 2.59975L2.42169 5.67503C2.19918 5.99207 2.00847 6.34082 1.81775 6.68956L5.15527 3.36063C5.0917 3.58256 4.99634 3.80449 4.93277 4.05812Z" fill="#111111" style="fill:#111111;fill:color(display-p3 0.0667 0.0667 0.0667);fill-opacity:1;"/>
<path d="M5.05991 12.0793L9.89143 7.26024C9.92322 7.35535 9.98676 7.48217 10.0185 7.57728L16.8526 0.760914C16.7572 0.72921 16.6301 0.665802 16.5029 0.634098C16.3758 0.602394 16.2804 0.57069 16.1533 0.538986C16.0261 0.507281 15.9308 0.475577 15.8036 0.443873C15.6765 0.412169 15.5493 0.380465 15.454 0.348761C15.3586 0.317057 15.2315 0.285352 15.1043 0.253648L9.47818 5.86526C9.50997 5.99207 9.54175 6.11892 9.57357 6.24574L4.74205 11.033C4.77384 11.1599 4.80563 11.2867 4.83741 11.3818L1.0231 15.218C1.05488 15.3448 1.08667 15.4399 1.11846 15.5667L4.96456 11.7305C4.99634 11.8574 5.02813 11.9524 5.05991 12.0793Z" fill="#111111" style="fill:#111111;fill:color(display-p3 0.0667 0.0667 0.0667);fill-opacity:1;"/>
<path d="M5.91817 13.9498L18.41 1.49008C18.3147 1.42667 18.2194 1.39496 18.124 1.33156C18.0287 1.26815 17.9333 1.23648 17.8061 1.17307L1.75419 17.1836C1.81777 17.2787 1.84955 17.3738 1.91312 17.5007L5.75924 13.6328C5.82281 13.7596 5.88638 13.8547 5.91817 13.9498Z" fill="#111111" style="fill:#111111;fill:color(display-p3 0.0667 0.0667 0.0667);fill-opacity:1;"/>
<path d="M126.61 11.7147H125.338V1.41083H126.61V11.7147Z" fill="#111111" style="fill:#111111;fill:color(display-p3 0.0667 0.0667 0.0667);fill-opacity:1;"/>
<path d="M48.289 11.6513H38.8167V13.9657H45.8096C45.1421 17.4848 42.2814 20.2114 38.8167 20.3699C38.7213 20.3699 38.6578 20.3699 38.5624 20.3699C34.4938 20.3382 31.2198 16.7556 31.2198 12.4439C31.2198 12.1902 31.2198 11.9049 31.2516 11.6513C31.633 7.68825 34.8117 4.51784 38.6578 4.51784C41.5503 4.51784 43.9343 6.10304 45.1739 8.73448H47.7486C47.7168 8.63937 47.685 8.57596 47.6532 8.48085C46.1593 4.58124 42.79 2.17173 38.6578 2.17173C36.7506 2.17173 35.0024 2.74241 33.4766 3.72523C30.902 5.40555 29.0902 8.29062 28.8677 11.6513C28.8359 11.9366 28.8359 12.1902 28.8359 12.4439C28.8359 18.0238 33.0634 22.5575 38.3717 22.716C38.4035 22.716 38.4671 22.716 38.4988 22.716C38.5306 22.716 38.5306 22.716 38.5624 22.716C38.5942 22.716 38.626 22.716 38.6578 22.716C38.7213 22.716 38.7531 22.716 38.7849 22.716C38.9438 22.716 39.071 22.6843 39.1981 22.6843C39.2935 22.6843 39.4206 22.6843 39.516 22.6526C41.8682 22.4307 43.7435 21.4478 45.0786 20.0211C47.0493 18.1506 48.289 15.4558 48.289 12.4439C48.3207 12.1902 48.289 11.9366 48.289 11.6513Z" fill="#111111" style="fill:#111111;fill:color(display-p3 0.0667 0.0667 0.0667);fill-opacity:1;"/>
<path d="M53.9787 22.3989H51.5629V1.25231H53.9787V22.3989Z" fill="#111111" style="fill:#111111;fill:color(display-p3 0.0667 0.0667 0.0667);fill-opacity:1;"/>
<path d="M71.8425 15.107C71.8425 19.3236 68.6638 22.716 64.4681 22.716C60.3041 22.716 57.0937 19.3236 57.0937 15.107C57.0937 10.8587 60.3041 7.3712 64.4681 7.3712C68.6638 7.40291 71.8425 10.8587 71.8425 15.107ZM69.4267 15.107C69.4267 12.0634 67.2017 9.59049 64.4681 9.59049C61.7663 9.59049 59.5412 12.0634 59.5412 15.107C59.5412 18.0872 61.7663 20.4967 64.4681 20.4967C67.2017 20.4967 69.4267 18.0872 69.4267 15.107Z" fill="#111111" style="fill:#111111;fill:color(display-p3 0.0667 0.0667 0.0667);fill-opacity:1;"/>
<path d="M82.3636 22.7477C80.2022 22.7477 78.3268 21.5112 77.3097 20.0211V22.3672H74.9893V1.25231H77.405V9.97094C78.454 8.54426 80.2658 7.3712 82.3954 7.3712C86.623 7.3712 89.7062 10.827 89.7062 15.0753C89.7062 19.3236 86.5594 22.7477 82.3636 22.7477ZM82.3636 9.62219C79.6618 9.62219 77.3732 12.0634 77.3732 15.107C77.3732 18.0872 79.6618 20.5284 82.3636 20.5284C85.0972 20.5284 87.2587 18.0872 87.2587 15.107C87.2587 12.0634 85.0972 9.62219 82.3636 9.62219Z" fill="#111111" style="fill:#111111;fill:color(display-p3 0.0667 0.0667 0.0667);fill-opacity:1;"/>
<path d="M102.643 20.7186C101.594 21.9868 99.8778 22.7477 97.5892 22.7477C94.5695 22.7477 91.8677 21.3844 91.8677 18.2457C91.8677 15.2338 94.0609 13.8705 97.8435 13.6803C101.435 13.5218 102.611 12.856 102.611 11.683C102.611 10.5099 101.499 9.6539 99.0195 9.6539C97.4938 9.6539 95.4595 10.1295 95.2052 12.2536H92.6941C92.853 9.33686 95.2688 7.43461 99.0513 7.43461C102.993 7.43461 104.964 9.24175 104.964 11.9683V20.0211C104.964 20.7503 105.154 21.8283 105.377 22.399H102.993C102.802 21.9551 102.675 21.3844 102.643 20.7186ZM102.611 14.5363C101.658 15.3923 99.9096 15.5826 98.1613 15.7094C94.9827 15.8996 94.2516 17.0093 94.2516 18.2457C94.2516 19.8309 95.7774 20.5284 97.6527 20.5284C100.164 20.5284 102.516 19.4505 102.58 16.819V14.5363H102.611Z" fill="#111111" style="fill:#111111;fill:color(display-p3 0.0667 0.0667 0.0667);fill-opacity:1;"/>
<path d="M111.543 22.3989H109.128V1.25231H111.543V22.3989Z" fill="#111111" style="fill:#111111;fill:color(display-p3 0.0667 0.0667 0.0667);fill-opacity:1;"/>
<path d="M117.36 8.73448L116.248 11.7464H114.881L118.79 1.41083H120.221L124.035 11.7147H122.605L121.524 8.70278H117.36V8.73448ZM119.49 2.96433L117.805 7.56143H121.143L119.49 2.96433Z" fill="#111111" style="fill:#111111;fill:color(display-p3 0.0667 0.0667 0.0667);fill-opacity:1;"/>
</svg>
